<svg width="607" height="109" viewBox="0 0 607 109" fill="none" xmlns="http://www.w3.org/2000/svg">
<path d="M578.411 78.3284C574.725 78.3284 571.346 77.4947 568.274 75.8272C565.29 74.1597 563.798 71.6146 563.798 68.1918C563.798 63.7159 566.958 59.8543 573.276 56.6071C579.595 53.3598 586.134 51.7362 592.892 51.7362C597.104 51.7362 600.527 52.5261 603.16 54.1058C605.793 55.5978 607.065 57.8796 606.977 60.9513C606.977 63.9353 604.696 66.6559 600.132 69.1133C595.656 71.4829 592.672 72.6677 591.18 72.6677C589.688 72.6677 588.942 72.3605 588.942 71.7462C588.942 71.1318 589.205 70.693 589.732 70.4297C590.346 70.0787 591.619 69.4644 593.55 68.5867C595.481 67.7091 596.885 67.007 597.762 66.4804C598.64 65.8661 599.079 65.3834 599.079 65.0323C599.079 64.6813 598.684 64.5057 597.894 64.5057C594.998 64.5057 590.434 65.5589 584.203 67.6652C578.06 69.6838 574.988 71.3513 574.988 72.6677C574.988 73.4576 576.743 73.8525 580.254 73.8525C588.942 73.8525 593.286 77.3191 593.286 84.2524C593.286 87.3241 591.443 90.1325 587.757 92.6777C584.071 95.135 580.298 96.8903 576.436 97.9434C572.574 98.9966 569.459 99.5232 567.089 99.5232C564.807 99.5232 562.262 98.47 559.454 96.3637C556.645 94.2574 555.241 92.1511 555.241 90.0448C555.241 87.9385 558.006 86.4026 563.535 85.4372C565.992 85.0862 569.239 84.2963 573.276 83.0676C577.314 81.7512 579.332 80.5225 579.332 79.3816C579.332 78.6795 579.025 78.3284 578.411 78.3284Z" fill="black"/>
<path d="M536.115 78.3284C532.429 78.3284 529.05 77.4947 525.978 75.8272C522.994 74.1597 521.502 71.6146 521.502 68.1918C521.502 63.7159 524.662 59.8543 530.981 56.6071C537.3 53.3598 543.838 51.7362 550.596 51.7362C554.808 51.7362 558.231 52.5261 560.864 54.1058C563.497 55.5978 564.769 57.8796 564.682 60.9513C564.682 63.9353 562.4 66.6559 557.836 69.1133C553.36 71.4829 550.376 72.6677 548.884 72.6677C547.392 72.6677 546.646 72.3605 546.646 71.7462C546.646 71.1318 546.91 70.693 547.436 70.4297C548.051 70.0787 549.323 69.4644 551.254 68.5867C553.185 67.7091 554.589 67.007 555.466 66.4804C556.344 65.8661 556.783 65.3834 556.783 65.0323C556.783 64.6813 556.388 64.5057 555.598 64.5057C552.702 64.5057 548.138 65.5589 541.907 67.6652C535.764 69.6838 532.692 71.3513 532.692 72.6677C532.692 73.4576 534.447 73.8525 537.958 73.8525C546.646 73.8525 550.991 77.3191 550.991 84.2524C550.991 87.3241 549.148 90.1325 545.461 92.6777C541.775 95.135 538.002 96.8903 534.14 97.9434C530.278 98.9966 527.163 99.5232 524.793 99.5232C522.511 99.5232 519.966 98.47 517.158 96.3637C514.349 94.2574 512.945 92.1511 512.945 90.0448C512.945 87.9385 515.71 86.4026 521.239 85.4372C523.696 85.0862 526.943 84.2963 530.981 83.0676C535.018 81.7512 537.036 80.5225 537.036 79.3816C537.036 78.6795 536.729 78.3284 536.115 78.3284Z" fill="black"/>
<path d="M509.525 66.4804C509.525 68.85 510.929 70.0348 513.737 70.0348C516.37 70.0348 519.266 69.3766 522.426 68.0602C525.585 66.7437 527.297 66.0855 527.56 66.0855C527.823 66.0855 528.086 66.3049 528.35 66.7437C528.701 67.1825 528.876 67.6214 528.876 68.0602C528.876 69.0256 526.814 70.2981 522.689 71.8779C518.652 73.3698 515.712 74.1158 513.869 74.1158C512.026 74.1158 510.709 74.1158 509.92 74.1158C509.217 74.0281 508.647 74.4669 508.208 75.4323C501.714 87.6313 495.263 95.3106 488.856 98.47C486.048 99.8743 483.064 100.576 479.905 100.576C476.833 100.576 474.288 99.5671 472.269 97.5485C470.338 95.4422 469.373 92.1511 469.373 87.6752C469.373 81.444 471.392 75.6517 475.429 70.2981C479.554 64.8568 484.205 60.7758 489.383 58.0552C494.561 55.3345 499.256 53.9742 503.469 53.9742C510.578 54.7641 514.132 56.9143 514.132 60.4248C514.132 61.3902 513.869 62.2678 513.342 63.0577C512.903 63.7598 512.509 64.1986 512.157 64.3741C511.894 64.4619 511.543 64.5497 511.104 64.6374C510.051 64.9007 509.525 65.515 509.525 66.4804ZM498.73 72.5361C495.921 74.6424 493.157 77.3192 490.436 80.5664C487.803 83.8136 486.487 86.4904 486.487 88.5967C486.487 90.6153 487.057 91.6245 488.198 91.6245C489.953 91.6245 493.157 88.9478 497.808 83.5942C502.547 78.1529 504.917 73.677 504.917 70.1665C504.917 69.6399 504.566 69.3766 503.864 69.3766C503.25 69.3766 501.538 70.4298 498.73 72.5361Z" fill="black"/>
<path d="M387.999 46.0755L405.376 44.2325C406.165 44.2325 406.911 44.4519 407.614 44.8907C408.403 45.3296 408.798 45.9 408.798 46.6021C408.798 47.3042 407.965 48.0063 406.297 48.7084C398.925 51.6046 392.431 53.0527 386.814 53.0527C381.197 53.0527 376.326 51.824 372.201 49.3667C368.164 46.8215 366.146 43.0477 366.146 38.0452C366.146 31.463 369.744 25.4951 376.94 20.1416C384.137 14.788 393.001 10.7509 403.533 8.03028C414.064 5.30963 424.332 3.94931 434.337 3.94931C444.342 3.94931 452.811 4.87082 459.745 6.71384C466.766 8.4691 472.558 11.4092 477.122 15.534C481.685 19.6589 483.967 24.7053 483.967 30.6731C483.967 34.7102 481.554 38.7034 476.727 42.6528C471.988 46.5144 466.459 49.6738 460.14 52.1312C453.908 54.5008 447.765 56.1683 441.709 57.1337C440.13 57.6603 439.34 58.1868 439.34 58.7134C439.34 59.4155 444.43 65.8661 454.611 78.0652C464.879 90.1764 470.013 97.373 470.013 99.6548C470.013 101.937 468.653 103.999 465.932 105.842C463.299 107.773 460.315 108.738 456.98 108.738C453.733 108.738 450.793 108.299 448.16 107.422C445.527 106.632 442.938 105.359 440.393 103.604C437.936 101.849 435.742 100.181 433.811 98.6017C431.88 97.022 429.73 94.8718 427.36 92.1511C425.078 89.3427 423.367 87.2364 422.226 85.8322C418.277 80.7419 415.381 76.8365 413.538 74.1158C403.357 86.6659 397.828 93.3359 396.95 94.1258C396.16 94.8279 395.546 95.3983 395.107 95.8372C394.669 96.1882 394.317 96.4954 394.054 96.7587C393.352 97.4608 392.474 97.8118 391.421 97.8118C390.368 97.8118 389.227 96.7148 387.999 94.5207C388.437 93.3798 390.939 89.5182 395.502 82.936C400.066 76.3538 403.533 71.7901 405.902 69.245C407.043 67.5775 407.614 66.5243 407.614 66.0855C407.614 65.6467 407.087 65.0762 406.034 64.3741C404.279 62.9699 403.401 61.4779 403.401 59.8982C403.401 58.2307 404.63 57.1776 407.087 56.7387L417.487 54.7641C425.561 44.3203 430.432 38.2646 432.099 36.5971C433.767 34.9296 435.434 34.0959 437.102 34.0959C438.769 34.0959 439.603 34.8858 439.603 36.4655C439.603 37.6064 438.682 39.4056 436.839 41.8629L429.467 52.2628C430.256 52.2628 434.074 51.3852 440.92 49.6299C447.853 47.8747 455.049 45.4612 462.509 42.3895C469.969 39.3178 473.699 36.4655 473.699 33.8326C473.699 29.971 468.258 28.0402 457.375 28.0402C449.301 28.0402 439.647 29.0495 428.413 31.0681C417.267 33.0866 407.614 35.544 399.452 38.4402C391.377 41.2486 387.34 43.7059 387.34 45.8123C387.34 45.9878 387.56 46.0755 387.999 46.0755Z" fill="black"/>
<path d="M323.184 92.4144C323.184 92.8532 323.491 93.1604 324.106 93.3359C324.72 93.3359 326.826 92.1072 330.424 89.6499C334.11 87.1047 336.173 85.7005 336.612 85.4372C337.138 85.174 337.621 85.0423 338.06 85.0423C339.289 85.0423 339.903 85.6567 339.903 86.8853C339.903 88.0263 336.787 90.6153 330.556 94.6524C324.413 98.6895 320.068 100.708 317.523 100.708C316.47 100.708 315.329 100.269 314.101 99.3916C312.96 98.5139 312.389 97.5047 312.389 96.3637C312.389 95.1351 312.696 93.8186 313.311 92.4144C313.925 91.0102 314.232 90.0887 314.232 89.6499C314.232 89.1233 314.101 88.86 313.837 88.86C313.574 88.86 313.311 88.9478 313.047 89.1233C304.534 95.53 298.259 98.7333 294.222 98.7333C291.94 98.7333 290.141 97.8996 288.825 96.2321C287.508 94.5646 286.718 92.8971 286.455 91.2296L286.192 88.7284C286.192 85.8322 287.289 82.4972 289.483 78.7234C291.765 74.8618 294.705 71.2196 298.303 67.7969C301.989 64.2864 306.465 61.3463 311.731 58.9767C317.084 56.6071 322.526 55.4223 328.055 55.4223C331.039 55.4223 333.803 56.2122 336.348 57.7919C338.981 59.3716 340.298 61.2147 340.298 63.321C340.298 65.4273 338.235 66.6998 334.11 67.1387C331.039 67.8408 325.949 70.3859 318.84 74.774C311.819 79.0744 308.308 82.3655 308.308 84.6474C308.308 85.6128 308.791 86.0955 309.756 86.0955C311.512 86.0955 315.636 83.5942 322.131 78.5917C328.713 73.5892 332.662 71.088 333.979 71.088C335.295 71.088 335.954 71.8779 335.954 73.4576C335.954 74.5985 335.515 75.6955 334.637 76.7487C333.847 77.7141 333.277 78.4162 332.926 78.855C332.224 79.7326 330.424 81.7073 327.528 84.779C324.632 87.763 323.184 90.3081 323.184 92.4144Z" fill="black"/>
<path d="M255.943 99.1282C254.627 97.8996 253.969 96.3198 253.969 94.389C253.969 88.2456 257.611 81.2685 264.895 73.4576C272.267 65.6467 279.113 61.1708 285.432 60.0298C289.381 60.0298 291.356 62.3556 291.356 67.007C291.356 68.499 289.381 72.0095 285.432 77.5385C281.482 83.0676 276.963 88.3773 271.872 93.4675C266.782 98.5578 263.184 101.103 261.078 101.103C258.971 101.103 257.26 100.445 255.943 99.1282ZM293.725 55.8172C297.938 55.3784 301.405 53.5792 304.125 50.4198C306.846 47.1726 308.206 44.408 308.206 42.1262C308.206 38.5279 306.407 36.7288 302.809 36.7288C300.351 36.7288 297.455 37.8258 294.12 40.0199C290.785 42.2139 288.898 45.4173 288.46 49.6299L288.591 51.078C288.767 52.1312 289.293 53.1843 290.171 54.2375C291.049 55.2906 292.233 55.8172 293.725 55.8172Z" fill="black"/>
<path d="M245.554 48.5768C246.168 48.5768 246.739 48.884 247.265 49.4983C247.792 50.0249 248.055 50.6831 248.055 51.473C248.055 52.1751 247.616 53.0966 246.739 54.2375C243.316 58.4501 241.034 61.1269 239.893 62.2678C238.84 63.321 238.313 64.0231 238.313 64.3741C238.313 64.7252 238.577 64.9007 239.103 64.9007C239.718 64.9007 242.087 64.1547 246.212 62.6627C250.337 61.083 253.058 60.2931 254.374 60.2931C255.69 60.2931 257.051 60.8636 258.455 62.0045C259.859 63.0577 260.561 64.4619 260.561 66.2171C260.561 67.8846 257.885 71.7901 252.531 77.9335C247.177 83.9891 244.501 87.9385 244.501 89.7815C244.501 90.1326 244.632 90.3081 244.896 90.3081C245.334 90.3081 246.124 90.0448 247.265 89.5182C248.406 88.9039 249.108 88.5967 249.372 88.5967C250.337 88.5967 250.82 88.9478 250.82 89.6499C250.82 92.3705 248.669 95.0912 244.369 97.8118C240.069 100.532 236.426 101.893 233.443 101.893C230.546 101.893 228.177 101.059 226.334 99.3916C224.491 97.8118 223.569 95.6616 223.569 92.941C223.569 90.2203 224.886 87.1925 227.519 83.8575C230.239 80.4347 233.004 78.0213 235.812 76.617C238.708 75.2128 240.156 74.0719 240.156 73.1943C240.156 72.931 240.113 72.7555 240.025 72.6677C236.163 74.2474 233.004 75.0373 230.546 75.0373C225.719 75.0373 223.306 73.6331 223.306 70.8247C223.306 67.5775 226.114 63.321 231.731 58.0552C237.348 52.7894 241.956 49.6299 245.554 48.5768Z" fill="black"/>
<path d="M214.225 66.4804C214.225 68.85 215.629 70.0348 218.437 70.0348C221.07 70.0348 223.966 69.3766 227.126 68.0602C230.285 66.7437 231.997 66.0855 232.26 66.0855C232.523 66.0855 232.786 66.3049 233.05 66.7437C233.401 67.1825 233.576 67.6214 233.576 68.0602C233.576 69.0256 231.514 70.2981 227.389 71.8779C223.352 73.3698 220.412 74.1158 218.569 74.1158C216.726 74.1158 215.409 74.1158 214.619 74.1158C213.917 74.0281 213.347 74.4669 212.908 75.4323C206.414 87.6313 199.963 95.3106 193.556 98.47C190.748 99.8743 187.764 100.576 184.605 100.576C181.533 100.576 178.988 99.5671 176.969 97.5485C175.038 95.4422 174.073 92.1511 174.073 87.6752C174.073 81.444 176.092 75.6517 180.129 70.2981C184.254 64.8568 188.905 60.7758 194.083 58.0552C199.261 55.3345 203.956 53.9742 208.169 53.9742C215.278 54.7641 218.832 56.9143 218.832 60.4248C218.832 61.3902 218.569 62.2678 218.042 63.0577C217.603 63.7598 217.208 64.1986 216.857 64.3741C216.594 64.4619 216.243 64.5497 215.804 64.6374C214.751 64.9007 214.225 65.515 214.225 66.4804ZM203.43 72.5361C200.621 74.6424 197.857 77.3192 195.136 80.5664C192.503 83.8136 191.187 86.4904 191.187 88.5967C191.187 90.6153 191.757 91.6245 192.898 91.6245C194.653 91.6245 197.857 88.9478 202.508 83.5942C207.247 78.1529 209.617 73.677 209.617 70.1665C209.617 69.6399 209.266 69.3766 208.564 69.3766C207.95 69.3766 206.238 70.4298 203.43 72.5361Z" fill="black"/>
<path d="M146.214 44.6275C146.214 43.2233 149.988 41.9507 157.535 40.8098C165.083 39.6689 173.157 38.879 181.758 38.4402C188.954 31.9457 195.449 26.4166 201.241 21.853L204.137 19.4834C205.454 19.4834 206.112 20.4488 206.112 22.3796L206.375 28.8301C206.112 29.7955 204.269 32.8233 200.846 37.9136H207.297C217.038 37.9136 222.655 38.879 224.147 40.8098C225.727 42.6528 226.517 44.1448 226.517 45.2857C226.517 46.7777 225.025 47.5675 222.041 47.6553C219.057 47.7431 209.71 47.7869 194.001 47.7869C181.451 60.6881 171.621 72.1412 164.512 82.1461C161.792 85.8322 159.422 89.1233 157.404 92.0195C155.385 94.9156 153.805 96.9342 152.664 98.0751C151.611 99.3038 150.602 99.9181 149.636 99.9181C146.74 99.9181 144.283 98.9527 142.264 97.022C140.246 95.0912 139.237 92.7216 139.237 89.9132C139.237 82.19 149.988 68.1918 171.489 47.9186H151.216C147.881 47.9186 146.214 46.8215 146.214 44.6275Z" fill="black"/>
<path d="M147.783 76.8803C147.695 77.758 144.843 80.0837 139.226 83.8575C133.609 87.5435 127.115 91.1418 119.743 94.6523C112.371 98.1629 107.061 99.9181 103.814 99.9181C100.654 99.9181 97.9338 98.9527 95.652 97.0219C93.3702 95.0034 92.2292 92.7215 92.2292 90.1764C92.2292 84.9106 94.555 79.5132 99.2064 73.9842C103.946 68.3673 109.387 63.8475 115.53 60.4248C121.761 56.9143 127.027 55.159 131.328 55.159C135.716 55.159 139.007 55.7295 141.201 56.8704C143.395 57.9235 144.492 59.9421 144.492 62.926C144.492 65.91 142.561 69.3766 138.7 73.3259C134.926 77.1875 131.679 79.1183 128.958 79.1183C127.203 79.1183 126.325 78.5917 126.325 77.5386C126.325 76.8365 126.764 76.2221 127.642 75.6955C128.607 75.1689 130.143 73.9403 132.249 72.0095C134.355 70.0787 135.409 68.7623 135.409 68.0602C135.409 67.7969 135.145 67.6652 134.619 67.6652C131.547 67.6652 127.203 70.4736 121.586 76.0905C115.969 81.7073 113.161 85.9199 113.161 88.7283C113.161 90.1325 113.907 90.8346 115.399 90.8346C116.978 90.8346 119.48 89.957 122.902 88.2018C126.325 86.3587 130.538 83.9014 135.54 80.8297C140.543 77.758 143.395 76.0466 144.097 75.6955C144.887 75.2567 145.501 75.0373 145.94 75.0373C147.169 75.0373 147.783 75.6517 147.783 76.8803Z" fill="black"/>
<path d="M62.4622 99.1282C61.1458 97.8996 60.4875 96.3198 60.4875 94.389C60.4875 88.2456 64.1297 81.2685 71.414 73.4576C78.7861 65.6467 85.6316 61.1708 91.9506 60.0298C95.8999 60.0298 97.8746 62.3556 97.8746 67.007C97.8746 68.499 95.8999 72.0095 91.9506 77.5385C88.0012 83.0676 83.4815 88.3773 78.3912 93.4675C73.3009 98.5578 69.7027 101.103 67.5964 101.103C65.49 101.103 63.7787 100.445 62.4622 99.1282ZM100.244 55.8172C104.457 55.3784 107.923 53.5792 110.644 50.4198C113.365 47.1726 114.725 44.408 114.725 42.1262C114.725 38.5279 112.926 36.7288 109.328 36.7288C106.87 36.7288 103.974 37.8258 100.639 40.0199C97.3041 42.2139 95.4172 45.4173 94.9784 49.6299L95.11 51.078C95.2856 52.1312 95.8122 53.1843 96.6898 54.2375C97.5674 55.2906 98.7522 55.8172 100.244 55.8172Z" fill="black"/>
<path d="M0 80.9614C0 73.4137 2.01855 65.5589 6.05565 57.397C10.0927 49.1473 15.2269 41.7313 21.4581 35.1491C27.6892 28.5669 34.3592 22.5551 41.468 17.1138C48.5768 11.6725 55.3784 7.45986 61.8729 4.47592C68.4551 1.49197 73.8087 0 77.9335 0C79.5133 0 81.2246 0.614341 83.0677 1.84302C84.9985 3.0717 85.9638 4.51979 85.9638 6.18729C85.9638 7.76702 84.3402 10.7948 81.093 15.2708C77.8458 19.6589 73.8964 24.6614 69.245 30.2782C64.6813 35.8951 60.0738 41.6874 55.4223 47.6553C50.7709 53.6232 46.8216 59.5033 43.5743 65.2957C40.3271 71.088 38.7035 75.7833 38.7035 79.3816C38.7035 80.7858 39.4056 81.4879 40.8098 81.4879C43.4427 81.4879 47.4798 78.855 52.9211 73.5893C58.3624 68.2357 64.3742 61.7851 70.9564 54.2375C77.6264 46.6021 84.5158 39.0106 91.6246 31.463C98.8211 23.8277 106.193 17.3771 113.741 12.1113C121.376 6.75775 128.09 4.08098 133.882 4.08098C135.55 4.08098 137.305 4.56368 139.148 5.52907C140.991 6.4067 141.913 7.41597 141.913 8.55689C141.913 9.61005 141.43 10.4438 140.465 11.0581C139.499 11.6725 137.832 12.5501 135.462 13.691C133.18 14.8319 130.416 16.3239 127.169 18.1669C123.921 19.9222 119.665 22.7306 114.399 26.5922C109.133 30.366 103.429 34.8419 97.2853 40.0199C82.6288 52.3945 65.91 69.1572 47.1287 90.3081C39.5811 98.7334 29.4006 102.946 16.5872 102.946H16.4556C12.594 102.946 8.90794 100.533 5.39742 95.7055C1.97467 90.7908 0.175526 85.8761 0 80.9614Z" fill="black"/>
</svg>
