<svg width="607" height="109" viewBox="0 0 607 109" fill="none" xmlns="http://www.w3.org/2000/svg">
<path d="M578.429 78.3284C574.743 78.3284 571.364 77.4947 568.292 75.8272C565.308 74.1597 563.816 71.6146 563.816 68.1918C563.816 63.7159 566.976 59.8543 573.295 56.6071C579.614 53.3598 586.152 51.7362 592.91 51.7362C597.122 51.7362 600.545 52.5261 603.178 54.1058C605.811 55.5978 607.084 57.8796 606.996 60.9513C606.996 63.9353 604.714 66.6559 600.15 69.1133C595.674 71.4829 592.69 72.6677 591.198 72.6677C589.706 72.6677 588.961 72.3605 588.961 71.7462C588.961 71.1318 589.224 70.693 589.75 70.4297C590.365 70.0787 591.637 69.4644 593.568 68.5867C595.499 67.7091 596.903 67.007 597.781 66.4804C598.658 65.8661 599.097 65.3834 599.097 65.0323C599.097 64.6813 598.702 64.5057 597.912 64.5057C595.016 64.5057 590.452 65.5589 584.221 67.6652C578.078 69.6838 575.006 71.3513 575.006 72.6677C575.006 73.4576 576.761 73.8525 580.272 73.8525C588.96 73.8525 593.305 77.3191 593.305 84.2524C593.305 87.3241 591.462 90.1325 587.776 92.6777C584.09 95.135 580.316 96.8903 576.454 97.9434C572.593 98.9966 569.477 99.5232 567.108 99.5232C564.826 99.5232 562.281 98.47 559.472 96.3637C556.664 94.2574 555.26 92.1511 555.26 90.0448C555.26 87.9385 558.024 86.4026 563.553 85.4372C566.01 85.0862 569.258 84.2963 573.295 83.0676C577.332 81.7512 579.35 80.5225 579.35 79.3816C579.35 78.6795 579.043 78.3284 578.429 78.3284Z" fill="white"/>
<path d="M536.133 78.3284C532.447 78.3284 529.068 77.4947 525.996 75.8272C523.012 74.1597 521.52 71.6146 521.52 68.1918C521.52 63.7159 524.68 59.8543 530.999 56.6071C537.318 53.3598 543.856 51.7362 550.614 51.7362C554.827 51.7362 558.249 52.5261 560.882 54.1058C563.515 55.5978 564.788 57.8796 564.7 60.9513C564.7 63.9353 562.418 66.6559 557.854 69.1133C553.378 71.4829 550.395 72.6677 548.903 72.6677C547.411 72.6677 546.665 72.3605 546.665 71.7462C546.665 71.1318 546.928 70.693 547.454 70.4297C548.069 70.0787 549.341 69.4644 551.272 68.5867C553.203 67.7091 554.607 67.007 555.485 66.4804C556.362 65.8661 556.801 65.3834 556.801 65.0323C556.801 64.6813 556.406 64.5057 555.616 64.5057C552.72 64.5057 548.157 65.5589 541.925 67.6652C535.782 69.6838 532.71 71.3513 532.71 72.6677C532.71 73.4576 534.466 73.8525 537.976 73.8525C546.665 73.8525 551.009 77.3191 551.009 84.2524C551.009 87.3241 549.166 90.1325 545.48 92.6777C541.794 95.135 538.02 96.8903 534.158 97.9434C530.297 98.9966 527.181 99.5232 524.812 99.5232C522.53 99.5232 519.985 98.47 517.176 96.3637C514.368 94.2574 512.964 92.1511 512.964 90.0448C512.964 87.9385 515.728 86.4026 521.257 85.4372C523.715 85.0862 526.962 84.2963 530.999 83.0676C535.036 81.7512 537.055 80.5225 537.055 79.3816C537.055 78.6795 536.747 78.3284 536.133 78.3284Z" fill="white"/>
<path d="M509.543 66.4804C509.543 68.85 510.947 70.0348 513.756 70.0348C516.388 70.0348 519.285 69.3766 522.444 68.0602C525.604 66.7437 527.315 66.0855 527.578 66.0855C527.841 66.0855 528.105 66.3049 528.368 66.7437C528.719 67.1825 528.895 67.6214 528.895 68.0602C528.895 69.0256 526.832 70.2981 522.707 71.8779C518.67 73.3698 515.73 74.1158 513.887 74.1158C512.044 74.1158 510.728 74.1158 509.938 74.1158C509.236 74.0281 508.665 74.4669 508.226 75.4323C501.732 87.6313 495.281 95.3106 488.875 98.47C486.066 99.8743 483.082 100.576 479.923 100.576C476.851 100.576 474.306 99.5671 472.288 97.5485C470.357 95.4422 469.391 92.1511 469.391 87.6752C469.391 81.444 471.41 75.6517 475.447 70.2981C479.572 64.8568 484.223 60.7758 489.401 58.0552C494.579 55.3345 499.275 53.9742 503.487 53.9742C510.596 54.7641 514.15 56.9143 514.15 60.4248C514.15 61.3902 513.887 62.2678 513.361 63.0577C512.922 63.7598 512.527 64.1986 512.176 64.3741C511.913 64.4619 511.561 64.5497 511.123 64.6374C510.069 64.9007 509.543 65.515 509.543 66.4804ZM498.748 72.5361C495.94 74.6424 493.175 77.3192 490.454 80.5664C487.822 83.8136 486.505 86.4904 486.505 88.5967C486.505 90.6153 487.076 91.6245 488.216 91.6245C489.972 91.6245 493.175 88.9478 497.827 83.5942C502.566 78.1529 504.935 73.677 504.935 70.1665C504.935 69.6399 504.584 69.3766 503.882 69.3766C503.268 69.3766 501.556 70.4298 498.748 72.5361Z" fill="white"/>
<path d="M388.017 46.0755L405.394 44.2325C406.184 44.2325 406.93 44.4519 407.632 44.8907C408.421 45.3296 408.816 45.9 408.816 46.6021C408.816 47.3042 407.983 48.0063 406.315 48.7084C398.943 51.6046 392.449 53.0527 386.832 53.0527C381.215 53.0527 376.344 51.824 372.219 49.3667C368.182 46.8215 366.164 43.0477 366.164 38.0452C366.164 31.463 369.762 25.4951 376.958 20.1416C384.155 14.788 393.019 10.7509 403.551 8.03028C414.082 5.30963 424.35 3.94931 434.355 3.94931C444.36 3.94931 452.83 4.87082 459.763 6.71384C466.784 8.4691 472.576 11.4092 477.14 15.534C481.704 19.6589 483.985 24.7053 483.985 30.6731C483.985 34.7102 481.572 38.7034 476.745 42.6528C472.006 46.5144 466.477 49.6738 460.158 52.1312C453.927 54.5008 447.783 56.1683 441.728 57.1337C440.148 57.6603 439.358 58.1868 439.358 58.7134C439.358 59.4155 444.448 65.8661 454.629 78.0652C464.897 90.1765 470.031 97.373 470.031 99.6548C470.031 101.937 468.671 103.999 465.95 105.842C463.317 107.773 460.333 108.738 456.998 108.738C453.751 108.738 450.811 108.299 448.178 107.422C445.545 106.632 442.956 105.359 440.411 103.604C437.954 101.849 435.76 100.181 433.829 98.6017C431.898 97.022 429.748 94.8718 427.378 92.1511C425.096 89.3427 423.385 87.2364 422.244 85.8322C418.295 80.7419 415.399 76.8365 413.556 74.1158C403.375 86.6659 397.846 93.3359 396.968 94.1258C396.179 94.8279 395.564 95.3983 395.125 95.8372C394.687 96.1882 394.335 96.4954 394.072 96.7587C393.37 97.4608 392.492 97.8118 391.439 97.8118C390.386 97.8118 389.245 96.7148 388.017 94.5207C388.455 93.3798 390.957 89.5182 395.52 82.936C400.084 76.3538 403.551 71.7901 405.92 69.245C407.061 67.5775 407.632 66.5243 407.632 66.0855C407.632 65.6467 407.105 65.0762 406.052 64.3741C404.297 62.9699 403.419 61.4779 403.419 59.8982C403.419 58.2307 404.648 57.1776 407.105 56.7387L417.505 54.7641C425.579 44.3203 430.45 38.2646 432.117 36.5971C433.785 34.9296 435.452 34.0959 437.12 34.0959C438.787 34.0959 439.621 34.8858 439.621 36.4655C439.621 37.6064 438.7 39.4056 436.857 41.8629L429.485 52.2628C430.274 52.2628 434.092 51.3852 440.938 49.6299C447.871 47.8747 455.068 45.4612 462.527 42.3895C469.987 39.3178 473.717 36.4655 473.717 33.8326C473.717 29.971 468.276 28.0402 457.393 28.0402C449.319 28.0402 439.665 29.0495 428.431 31.0681C417.286 33.0866 407.632 35.544 399.47 38.4402C391.395 41.2486 387.358 43.7059 387.358 45.8123C387.358 45.9878 387.578 46.0755 388.017 46.0755Z" fill="white"/>
<path d="M323.202 92.4144C323.202 92.8532 323.509 93.1604 324.124 93.3359C324.738 93.3359 326.844 92.1072 330.443 89.6499C334.129 87.1047 336.191 85.7005 336.63 85.4372C337.157 85.174 337.639 85.0423 338.078 85.0423C339.307 85.0423 339.921 85.6567 339.921 86.8853C339.921 88.0263 336.806 90.6153 330.574 94.6524C324.431 98.6894 320.087 100.708 317.542 100.708C316.488 100.708 315.348 100.269 314.119 99.3916C312.978 98.5139 312.407 97.5047 312.407 96.3637C312.407 95.1351 312.715 93.8186 313.329 92.4144C313.943 91.0102 314.25 90.0887 314.25 89.6499C314.25 89.1233 314.119 88.86 313.856 88.86C313.592 88.86 313.329 88.9478 313.066 89.1233C304.553 95.53 298.278 98.7333 294.241 98.7333C291.959 98.7333 290.16 97.8996 288.843 96.2321C287.527 94.5646 286.737 92.8971 286.473 91.2296L286.21 88.7284C286.21 85.8322 287.307 82.4972 289.501 78.7234C291.783 74.8618 294.723 71.2196 298.322 67.7969C302.008 64.2864 306.483 61.3463 311.749 58.9767C317.103 56.6071 322.544 55.4223 328.073 55.4223C331.057 55.4223 333.822 56.2122 336.367 57.7919C339 59.3716 340.316 61.2147 340.316 63.321C340.316 65.4273 338.254 66.6998 334.129 67.1387C331.057 67.8408 325.967 70.3859 318.858 74.774C311.837 79.0744 308.326 82.3655 308.326 84.6474C308.326 85.6128 308.809 86.0955 309.775 86.0955C311.53 86.0955 315.655 83.5942 322.149 78.5917C328.731 73.5892 332.681 71.088 333.997 71.088C335.314 71.088 335.972 71.8779 335.972 73.4576C335.972 74.5985 335.533 75.6955 334.655 76.7487C333.866 77.7141 333.295 78.4162 332.944 78.855C332.242 79.7326 330.443 81.7073 327.547 84.779C324.65 87.763 323.202 90.3081 323.202 92.4144Z" fill="white"/>
<path d="M255.962 99.1282C254.645 97.8996 253.987 96.3198 253.987 94.389C253.987 88.2456 257.629 81.2685 264.914 73.4576C272.286 65.6467 279.131 61.1707 285.45 60.0298C289.399 60.0298 291.374 62.3556 291.374 67.007C291.374 68.499 289.399 72.0095 285.45 77.5385C281.501 83.0676 276.981 88.3773 271.891 93.4675C266.8 98.5578 263.202 101.103 261.096 101.103C258.99 101.103 257.278 100.445 255.962 99.1282ZM293.744 55.8172C297.956 55.3784 301.423 53.5792 304.144 50.4198C306.864 47.1726 308.225 44.408 308.225 42.1262C308.225 38.5279 306.425 36.7288 302.827 36.7288C300.37 36.7288 297.474 37.8258 294.139 40.0199C290.804 42.2139 288.917 45.4173 288.478 49.6299L288.61 51.078C288.785 52.1312 289.312 53.1843 290.189 54.2375C291.067 55.2906 292.252 55.8172 293.744 55.8172Z" fill="white"/>
<path d="M245.572 48.5768C246.186 48.5768 246.757 48.884 247.284 49.4983C247.81 50.0249 248.073 50.6831 248.073 51.473C248.073 52.1751 247.635 53.0966 246.757 54.2375C243.334 58.4501 241.052 61.1269 239.911 62.2678C238.858 63.321 238.332 64.0231 238.332 64.3741C238.332 64.7252 238.595 64.9007 239.122 64.9007C239.736 64.9007 242.105 64.1547 246.23 62.6627C250.355 61.083 253.076 60.2931 254.392 60.2931C255.709 60.2931 257.069 60.8636 258.473 62.0045C259.877 63.0577 260.58 64.4619 260.58 66.2171C260.58 67.8846 257.903 71.7901 252.549 77.9335C247.196 83.9891 244.519 87.9385 244.519 89.7815C244.519 90.1326 244.651 90.3081 244.914 90.3081C245.353 90.3081 246.143 90.0448 247.284 89.5182C248.424 88.9039 249.127 88.5967 249.39 88.5967C250.355 88.5967 250.838 88.9478 250.838 89.6499C250.838 92.3705 248.688 95.0912 244.387 97.8118C240.087 100.532 236.445 101.893 233.461 101.893C230.565 101.893 228.195 101.059 226.352 99.3916C224.509 97.8118 223.588 95.6616 223.588 92.941C223.588 90.2203 224.904 87.1925 227.537 83.8575C230.257 80.4347 233.022 78.0213 235.83 76.6171C238.727 75.2128 240.175 74.0719 240.175 73.1943C240.175 72.931 240.131 72.7555 240.043 72.6677C236.181 74.2474 233.022 75.0373 230.565 75.0373C225.738 75.0373 223.324 73.6331 223.324 70.8247C223.324 67.5775 226.133 63.321 231.749 58.0552C237.366 52.7894 241.974 49.6299 245.572 48.5768Z" fill="white"/>
<path d="M214.243 66.4804C214.243 68.85 215.647 70.0348 218.456 70.0348C221.088 70.0348 223.985 69.3766 227.144 68.0602C230.304 66.7437 232.015 66.0855 232.278 66.0855C232.541 66.0855 232.805 66.3049 233.068 66.7437C233.419 67.1825 233.595 67.6214 233.595 68.0602C233.595 69.0256 231.532 70.2981 227.407 71.8779C223.37 73.3698 220.43 74.1158 218.587 74.1158C216.744 74.1158 215.428 74.1158 214.638 74.1158C213.936 74.0281 213.365 74.4669 212.926 75.4323C206.432 87.6313 199.981 95.3106 193.575 98.47C190.766 99.8743 187.782 100.576 184.623 100.576C181.551 100.576 179.006 99.5671 176.987 97.5485C175.057 95.4422 174.091 92.1511 174.091 87.6752C174.091 81.444 176.11 75.6517 180.147 70.2981C184.272 64.8568 188.923 60.7758 194.101 58.0552C199.279 55.3345 203.975 53.9742 208.187 53.9742C215.296 54.7641 218.85 56.9143 218.85 60.4248C218.85 61.3902 218.587 62.2678 218.061 63.0577C217.622 63.7598 217.227 64.1986 216.876 64.3741C216.612 64.4619 216.261 64.5497 215.823 64.6374C214.769 64.9007 214.243 65.515 214.243 66.4804ZM203.448 72.5361C200.64 74.6424 197.875 77.3192 195.154 80.5664C192.522 83.8136 191.205 86.4904 191.205 88.5967C191.205 90.6153 191.776 91.6245 192.916 91.6245C194.672 91.6245 197.875 88.9478 202.527 83.5942C207.266 78.1529 209.635 73.677 209.635 70.1665C209.635 69.6399 209.284 69.3766 208.582 69.3766C207.968 69.3766 206.256 70.4298 203.448 72.5361Z" fill="white"/>
<path d="M146.232 44.6275C146.232 43.2233 150.006 41.9507 157.553 40.8098C165.101 39.6689 173.175 38.879 181.776 38.4402C188.973 31.9457 195.467 26.4166 201.259 21.853L204.156 19.4834C205.472 19.4834 206.13 20.4488 206.13 22.3795L206.394 28.8301C206.13 29.7955 204.287 32.8233 200.864 37.9136H207.315C217.057 37.9136 222.674 38.879 224.166 40.8098C225.745 42.6528 226.535 44.1448 226.535 45.2857C226.535 46.7777 225.043 47.5675 222.059 47.6553C219.075 47.7431 209.729 47.7869 194.019 47.7869C181.469 60.6881 171.639 72.1412 164.531 82.1461C161.81 85.8322 159.44 89.1233 157.422 92.0195C155.403 94.9156 153.824 96.9342 152.683 98.0751C151.629 99.3038 150.62 99.9181 149.655 99.9181C146.759 99.9181 144.301 98.9527 142.283 97.022C140.264 95.0912 139.255 92.7216 139.255 89.9132C139.255 82.19 150.006 68.1918 171.508 47.9186H151.235C147.9 47.9186 146.232 46.8215 146.232 44.6275Z" fill="white"/>
<path d="M147.802 76.8803C147.714 77.758 144.861 80.0837 139.245 83.8575C133.628 87.5435 127.133 91.1418 119.761 94.6523C112.389 98.1629 107.08 99.9181 103.832 99.9181C100.673 99.9181 97.9522 98.9527 95.6703 97.0219C93.3885 95.0034 92.2476 92.7215 92.2476 90.1764C92.2476 84.9106 94.5733 79.5132 99.2247 73.9842C103.964 68.3673 109.405 63.8475 115.549 60.4248C121.78 56.9143 127.046 55.159 131.346 55.159C135.734 55.159 139.025 55.7295 141.219 56.8704C143.413 57.9235 144.51 59.9421 144.51 62.926C144.51 65.91 142.58 69.3766 138.718 73.3259C134.944 77.1875 131.697 79.1183 128.976 79.1183C127.221 79.1183 126.343 78.5917 126.343 77.5386C126.343 76.8365 126.782 76.2221 127.66 75.6955C128.625 75.1689 130.161 73.9403 132.267 72.0095C134.374 70.0787 135.427 68.7623 135.427 68.0602C135.427 67.7969 135.164 67.6652 134.637 67.6652C131.565 67.6652 127.221 70.4736 121.604 76.0905C115.987 81.7073 113.179 85.9199 113.179 88.7283C113.179 90.1325 113.925 90.8346 115.417 90.8346C116.997 90.8346 119.498 89.957 122.921 88.2018C126.343 86.3587 130.556 83.9014 135.559 80.8297C140.561 77.758 143.413 76.0466 144.115 75.6955C144.905 75.2567 145.52 75.0373 145.959 75.0373C147.187 75.0373 147.802 75.6516 147.802 76.8803Z" fill="white"/>
<path d="M62.4803 99.1282C61.1638 97.8996 60.5056 96.3198 60.5056 94.389C60.5056 88.2456 64.1478 81.2685 71.4321 73.4576C78.8042 65.6467 85.6497 61.1707 91.9686 60.0298C95.918 60.0298 97.8927 62.3556 97.8927 67.007C97.8927 68.499 95.918 72.0095 91.9686 77.5385C88.0193 83.0676 83.4995 88.3773 78.4093 93.4675C73.319 98.5578 69.7207 101.103 67.6144 101.103C65.5081 101.103 63.7967 100.445 62.4803 99.1282ZM100.262 55.8172C104.475 55.3784 107.942 53.5792 110.662 50.4198C113.383 47.1726 114.743 44.408 114.743 42.1262C114.743 38.5279 112.944 36.7288 109.346 36.7288C106.888 36.7288 103.992 37.8258 100.657 40.0199C97.3222 42.2139 95.4353 45.4173 94.9965 49.6299L95.1281 51.078C95.3036 52.1312 95.8302 53.1843 96.7078 54.2375C97.5855 55.2906 98.7703 55.8172 100.262 55.8172Z" fill="white"/>
<path d="M0.0181885 80.9614C0.0181885 73.4137 2.03674 65.559 6.07383 57.397C10.1109 49.1473 15.2451 41.7313 21.4762 35.1491C27.7074 28.5669 34.3774 22.5551 41.4862 17.1138C48.595 11.6725 55.3966 7.45986 61.8911 4.47592C68.4733 1.49197 73.8269 0 77.9517 0C79.5315 0 81.2428 0.614341 83.0859 1.84302C85.0166 3.0717 85.982 4.51979 85.982 6.18729C85.982 7.76702 84.3584 10.7948 81.1112 15.2708C77.864 19.6589 73.9146 24.6614 69.2632 30.2782C64.6995 35.8951 60.092 41.6874 55.4405 47.6553C50.7891 53.6232 46.8397 59.5033 43.5925 65.2957C40.3453 71.088 38.7217 75.7833 38.7217 79.3816C38.7217 80.7858 39.4238 81.4879 40.828 81.4879C43.4609 81.4879 47.498 78.855 52.9393 73.5893C58.3806 68.2357 64.3923 61.7851 70.9746 54.2375C77.6446 46.6021 84.5339 39.0107 91.6428 31.463C98.8393 23.8277 106.211 17.3771 113.759 12.1113C121.394 6.75775 128.108 4.08098 133.901 4.08098C135.568 4.08098 137.323 4.56368 139.166 5.52907C141.009 6.4067 141.931 7.41597 141.931 8.55689C141.931 9.61005 141.448 10.4438 140.483 11.0581C139.517 11.6725 137.85 12.5501 135.48 13.691C133.199 14.832 130.434 16.3239 127.187 18.1669C123.94 19.9222 119.683 22.7306 114.417 26.5922C109.151 30.366 103.447 34.8419 97.3035 40.0199C82.647 52.3945 65.9282 69.1572 47.1469 90.3081C39.5993 98.7334 29.4188 102.946 16.6054 102.946H16.4737C12.6122 102.946 8.92613 100.533 5.41561 95.7055C1.99286 90.7908 0.193714 85.8761 0.0181885 80.9614Z" fill="white"/>
</svg>
